# Blender 5.1.0
# www.blender.org
o Icosphere
v 0.000000 0.000000 -0.872652
v -1.764837 -0.766384 1.761452
v -0.458775 -0.631457 -0.390267
v -1.804837 -0.766384 1.761452
v -0.742320 0.241190 -0.390267
v 0.000000 0.780522 -0.390263
v -1.734837 -1.133053 0.000000
v -1.834837 -1.133053 0.000000
v -0.742320 -0.241190 0.390267
v -1.764837 -0.766384 -1.761452
v -0.458775 0.631457 0.390267
v -1.804837 -0.766384 -1.761452
v -1.764837 0.766384 -1.761452
v -1.804837 0.766384 -1.761452
v 0.000000 -0.780522 0.390263
v 0.000000 0.000000 0.872652
v -1.734837 1.133053 -0.000000
v -0.436322 0.141767 -0.742325
v -1.834837 1.133053 -0.000000
v -0.269659 -0.371159 -0.742325
v -0.705985 -0.229393 -0.458786
v -1.764837 0.766384 1.761452
v 0.000000 -0.742319 -0.458784
v 0.000000 0.458779 -0.742323
v -1.804837 0.766384 1.761452
v -0.436323 0.600550 -0.458785
v -1.738562 0.105237 0.182275
v -1.734837 0.210473 0.000000
v -1.738562 -0.105237 0.182275
v -1.734837 -0.210473 0.000000
v -0.269660 -0.829942 0.000000
v -1.738562 -0.105237 -0.182275
v -1.734837 -0.210473 0.000000
v -1.738562 0.105237 -0.182275
v -0.705990 -0.512932 0.000000
v -1.734837 0.210473 -0.000000
v -0.269660 0.829942 0.000000
v -0.705990 0.512932 0.000000
v -0.436323 -0.600550 0.458785
v -0.705985 0.229393 0.458786
v 0.000000 0.742319 0.458784
v -0.436322 -0.141767 0.742325
v 0.000000 -0.458779 0.742323
v -0.269659 0.371159 0.742325
v -0.811586 0.105237 -0.182275
v -0.801854 -0.105237 -0.182275
v -0.804265 0.210473 -0.000000
v -0.804265 0.210473 0.000000
v -0.801854 0.105237 0.182275
v -0.811586 -0.105237 0.182275
v -0.804265 -0.210473 0.000000
v 0.000000 0.829942 0.000000
v 0.000000 -0.829942 0.000000
v 0.000000 -0.371159 -0.742325
v 0.000000 0.371159 0.742325
v 1.764837 -0.766384 1.761452
v 0.458775 -0.631457 -0.390267
v 1.804837 -0.766384 1.761452
v 0.742320 0.241190 -0.390267
v 1.734837 -1.133053 0.000000
v 1.834837 -1.133053 0.000000
v 0.742320 -0.241190 0.390267
v 1.764837 -0.766384 -1.761452
v 0.458775 0.631457 0.390267
v 1.804837 -0.766384 -1.761452
v 1.764837 0.766384 -1.761452
v 1.804837 0.766384 -1.761452
v 1.734837 1.133053 -0.000000
v 0.436322 0.141767 -0.742325
v 1.834837 1.133053 -0.000000
v 0.269659 -0.371159 -0.742325
v 0.705985 -0.229393 -0.458786
v 1.764837 0.766384 1.761452
v 1.804837 0.766384 1.761452
v 0.436323 0.600550 -0.458785
v 1.738562 0.105237 0.182275
v 1.734837 0.210473 0.000000
v 1.738562 -0.105237 0.182275
v 1.734837 -0.210473 0.000000
v 0.269660 -0.829942 0.000000
v 1.738562 -0.105237 -0.182275
v 1.734837 -0.210473 0.000000
v 1.738562 0.105237 -0.182275
v 0.705990 -0.512932 0.000000
v 1.734837 0.210473 -0.000000
v 0.269660 0.829942 0.000000
v 0.705990 0.512932 0.000000
v 0.436323 -0.600550 0.458785
v 0.705985 0.229393 0.458786
v 0.436322 -0.141767 0.742325
v 0.269659 0.371159 0.742325
v 0.811586 0.105237 -0.182275
v 0.801854 -0.105237 -0.182275
v 0.804265 0.210473 -0.000000
v 0.804265 0.210473 0.000000
v 0.801854 0.105237 0.182275
v 0.811586 -0.105237 0.182275
v 0.804265 -0.210473 0.000000
s 0
f 1 20 18
f 3 20 23
f 1 18 24
f 3 23 31
f 5 46 45
f 6 26 37
f 3 31 35
f 5 45 47
f 6 37 52
f 9 39 42
f 11 40 44
f 41 11 44
f 44 42 16
f 44 40 42
f 40 9 42
f 42 43 16
f 42 39 43
f 39 15 43
f 37 11 41
f 38 40 11
f 49 38 48
f 9 49 50
f 35 39 9
f 35 31 39
f 31 15 39
f 37 38 11
f 37 26 38
f 26 5 38
f 51 9 50
f 46 35 51
f 21 3 35
f 31 53 15
f 31 23 53
f 24 26 6
f 24 18 26
f 18 5 26
f 23 20 54
f 20 1 54
f 18 21 5
f 18 20 21
f 20 3 21
f 48 28 27
f 49 27 29
f 29 30 50
f 51 33 32
f 32 34 46
f 45 34 36
f 27 49 48
f 29 50 49
f 50 33 51
f 51 32 46
f 45 46 34
f 28 47 45
f 4 7 2
f 8 10 7
f 12 13 10
f 13 19 17
f 4 25 19
f 19 22 17
f 22 4 2
f 27 28 17
f 2 29 22
f 7 30 2
f 17 36 13
f 32 33 7
f 13 34 10
f 17 22 27
f 28 36 17
f 29 27 22
f 30 29 2
f 36 34 13
f 7 10 32
f 33 30 7
f 34 32 10
f 5 21 46
f 47 48 38
f 38 5 47
f 49 40 38
f 9 40 49
f 51 35 9
f 46 21 35
f 50 30 33
f 45 36 28
f 28 48 47
f 4 8 7
f 8 12 10
f 12 14 13
f 13 14 19
f 19 14 12
f 12 8 19
f 8 4 19
f 19 25 22
f 22 25 4
f 16 55 44
f 41 52 37
f 55 41 44
f 1 69 71
f 57 23 71
f 1 24 69
f 57 80 23
f 59 92 93
f 6 86 75
f 57 84 80
f 59 94 92
f 6 52 86
f 62 90 88
f 64 91 89
f 41 91 64
f 91 16 90
f 91 90 89
f 89 90 62
f 90 16 43
f 90 43 88
f 88 43 15
f 86 41 64
f 87 64 89
f 96 95 87
f 62 97 96
f 84 62 88
f 84 88 80
f 80 88 15
f 86 64 87
f 86 87 75
f 75 87 59
f 98 97 62
f 93 98 84
f 72 84 57
f 80 15 53
f 80 53 23
f 24 6 75
f 24 75 69
f 69 75 59
f 23 54 71
f 71 54 1
f 69 59 72
f 69 72 71
f 71 72 57
f 95 76 77
f 96 78 76
f 78 97 79
f 98 81 82
f 81 93 83
f 92 85 83
f 76 95 96
f 78 96 97
f 97 98 82
f 98 93 81
f 92 83 93
f 77 92 94
f 58 56 60
f 61 60 63
f 65 63 66
f 66 68 70
f 58 70 74
f 70 68 73
f 73 56 58
f 76 68 77
f 56 73 78
f 60 56 79
f 68 66 85
f 81 60 82
f 66 63 83
f 68 76 73
f 77 68 85
f 78 73 76
f 79 56 78
f 85 66 83
f 60 81 63
f 82 60 79
f 83 63 81
f 59 93 72
f 94 87 95
f 87 94 59
f 96 87 89
f 62 96 89
f 98 62 84
f 93 84 72
f 97 82 79
f 92 77 85
f 77 94 95
f 58 60 61
f 61 63 65
f 65 66 67
f 66 70 67
f 70 65 67
f 65 70 61
f 61 70 58
f 70 73 74
f 73 58 74
f 16 91 55
f 41 86 52
f 55 91 41
