# Blender 5.1.0
# www.blender.org
o Cube
v -0.500000 -0.500000 -0.500000
v -0.500000 -0.500000 0.500000
v -0.500000 0.500000 -0.500000
v -0.500000 0.500000 0.500000
v 0.500000 -0.500000 -0.500000
v 0.500000 -0.500000 0.500000
v 0.500000 0.500000 -0.500000
v 0.500000 0.500000 0.500000
v -0.500000 -0.500000 5.500000
v -0.500000 0.500000 5.500000
v 0.500000 0.500000 5.500000
v 0.500000 -0.500000 5.500000
v 5.500000 0.500000 0.500000
v 5.500000 0.500000 -0.500000
v 5.500000 -0.500000 -0.500000
v 5.500000 -0.500000 0.500000
v -0.500000 5.500000 0.500000
v -0.500000 5.500000 -0.500000
v 0.500000 5.500000 -0.500000
v 0.500000 5.500000 0.500000
v -0.002000 6.887274 -0.500000
v -0.368000 7.357274 -0.500000
v -0.604000 7.357274 -0.500000
v -0.098000 6.715274 -0.500000
v -0.098000 5.993274 -0.500000
v 0.098000 5.993274 -0.500000
v 0.098000 6.713274 -0.500000
v 0.604000 7.357274 -0.500000
v 0.368000 7.357274 -0.500000
v -0.368000 7.357274 0.500000
v -0.098000 6.715274 0.500000
v -0.604000 7.357274 0.500000
v 0.604000 7.357274 0.500000
v 0.368000 7.357274 0.500000
v 0.098000 6.713274 0.500000
v -0.002000 6.887274 0.500000
v -0.098000 5.993274 0.500000
v 0.098000 5.993274 0.500000
v 7.364000 -0.665500 -0.577312
v 7.364000 -0.429500 -0.577312
v 6.844000 -0.003500 -0.577312
v 7.364000 0.424500 -0.577312
v 7.364000 0.662500 -0.577312
v 6.706000 0.116500 -0.577312
v 6.000000 0.704500 -0.577312
v 6.000000 0.466500 -0.577312
v 6.564000 -0.003500 -0.577312
v 6.000000 -0.467500 -0.577312
v 6.000000 -0.703500 -0.577312
v 6.706000 -0.121500 -0.577312
v 6.000000 0.466500 0.422688
v 6.564000 -0.003500 0.422688
v 6.706000 0.116500 0.422688
v 6.000000 0.704500 0.422688
v 7.364000 0.662500 0.422688
v 7.364000 0.424500 0.422688
v 7.364000 -0.429500 0.422688
v 6.844000 -0.003500 0.422688
v 6.706000 -0.121500 0.422688
v 6.000000 -0.467500 0.422688
v 6.000000 -0.703500 0.422688
v 7.364000 -0.665500 0.422688
v 0.253000 -0.500000 7.177629
v -0.615000 -0.500000 5.989628
v 0.615000 -0.500000 5.989628
v 0.615000 -0.500000 6.165628
v -0.253000 -0.500000 6.165628
v 0.615000 -0.500000 7.353628
v -0.561000 -0.500000 7.353628
v -0.561000 -0.500000 7.177629
v 0.615000 0.500000 5.989628
v -0.253000 0.500000 6.165628
v -0.615000 0.500000 5.989628
v 0.615000 0.500000 6.165628
v 0.253000 0.500000 7.177629
v -0.561000 0.500000 7.353628
v -0.561000 0.500000 7.177629
v 0.615000 0.500000 7.353628
s 0
f 2 3 1
f 8 17 4
f 5 16 6
f 6 1 5
f 7 1 3
f 6 9 2
f 10 12 11
f 4 11 8
f 8 12 6
f 2 10 4
f 13 15 14
f 7 15 5
f 6 13 8
f 8 14 7
f 17 19 18
f 4 18 3
f 7 20 8
f 3 19 7
f 2 4 3
f 8 20 17
f 5 15 16
f 6 2 1
f 7 5 1
f 6 12 9
f 10 9 12
f 4 10 11
f 8 11 12
f 2 9 10
f 13 16 15
f 7 14 15
f 6 16 13
f 8 13 14
f 17 20 19
f 4 17 18
f 7 19 20
f 3 18 19
f 22 24 23
f 29 28 27
f 27 21 29
f 26 25 27
f 24 27 25
f 27 24 21
f 22 21 24
f 30 32 31
f 34 35 33
f 35 34 36
f 38 35 37
f 31 37 35
f 35 36 31
f 30 31 36
f 28 35 27
f 25 31 24
f 24 32 23
f 27 38 26
f 29 33 28
f 21 34 29
f 22 36 21
f 23 30 22
f 26 37 25
f 28 33 35
f 25 37 31
f 24 31 32
f 27 35 38
f 29 34 33
f 21 36 34
f 22 30 36
f 23 32 30
f 26 38 37
f 47 46 44
f 45 44 46
f 44 43 42
f 41 40 50
f 48 50 49
f 40 39 50
f 48 47 50
f 44 50 47
f 50 44 41
f 42 41 44
f 52 53 51
f 54 51 53
f 53 56 55
f 58 59 57
f 60 61 59
f 57 59 62
f 60 59 52
f 53 52 59
f 59 58 53
f 56 53 58
f 48 52 47
f 50 61 49
f 42 58 41
f 45 53 44
f 47 51 46
f 43 56 42
f 40 62 39
f 46 54 45
f 41 57 40
f 39 59 50
f 44 55 43
f 49 60 48
f 46 51 54
f 49 61 60
f 48 60 52
f 50 59 61
f 42 56 58
f 45 54 53
f 47 52 51
f 43 55 56
f 40 57 62
f 41 58 57
f 39 62 59
f 44 53 55
f 67 65 64
f 65 67 66
f 69 63 70
f 63 69 68
f 64 63 67
f 68 67 63
f 72 73 71
f 71 74 72
f 76 77 75
f 75 78 76
f 73 72 75
f 78 75 72
f 67 74 66
f 65 73 64
f 69 78 68
f 63 77 70
f 66 71 65
f 67 78 72
f 64 75 63
f 70 76 69
f 67 72 74
f 65 71 73
f 69 76 78
f 63 75 77
f 66 74 71
f 67 68 78
f 64 73 75
f 70 77 76
