# Blender 5.1.0
# www.blender.org
o Sphere.001
v 0.000000 1.000000 0.000000
v 0.000000 0.195090 0.980785
v 0.000000 -0.050000 1.000000
v 0.000000 -0.195090 0.980785
v 0.000000 -0.555570 0.831470
v 0.000000 -1.000000 0.000000
v -0.000004 0.505255 0.584654
v -0.038060 0.980785 0.191342
v -0.074658 0.923880 0.375330
v -0.191342 0.195090 0.961940
v -0.195090 -0.050000 0.980785
v -0.191342 -0.195090 0.961940
v -0.180240 -0.382683 0.906127
v -0.162212 -0.555570 0.815493
v -0.061061 0.342662 0.866430
v -0.137950 -0.707107 0.693520
v -0.108386 -0.831470 0.544895
v -0.033662 0.402398 0.724165
v -0.074658 -0.923880 0.375330
v -0.038060 -0.980785 0.191342
v -0.074658 0.980785 0.180240
v -0.146447 0.923880 0.353553
v -0.353553 0.382683 0.853553
v -0.375330 0.195090 0.906127
v -0.382683 -0.050000 0.923879
v -0.375330 -0.195090 0.906127
v -0.353553 -0.382683 0.853553
v -0.318190 -0.555570 0.768178
v -0.270598 -0.707107 0.653281
v -0.119775 0.356170 0.854822
v -0.212608 -0.831470 0.513280
v -0.146447 -0.923880 0.353553
v -0.066025 0.409844 0.717767
v -0.074658 -0.980785 0.180240
v -0.032626 0.449958 0.641146
v -0.108386 0.980785 0.162212
v -0.212608 0.923880 0.318190
v -0.308658 0.831470 0.461940
v -0.392847 0.707107 0.587938
v -0.461940 0.555570 0.691342
v -0.513280 0.382683 0.768178
v -0.544895 0.195090 0.815493
v -0.555570 -0.050000 0.831469
v -0.544895 -0.195090 0.815493
v -0.513280 -0.382683 0.768178
v -0.461940 -0.555570 0.691342
v -0.173886 0.378105 0.835971
v -0.392847 -0.707107 0.587938
v -0.308658 -0.831470 0.461940
v -0.095851 0.421935 0.707376
v -0.212608 -0.923880 0.318190
v -0.108386 -0.980785 0.162212
v -0.137950 0.980785 0.137950
v -0.270598 0.923880 0.270598
v -0.392847 0.831470 0.392847
v -0.500000 0.707107 0.500000
v -0.587938 0.555570 0.587938
v -0.653281 0.382683 0.653281
v -0.693520 0.195090 0.693520
v -0.707107 -0.050000 0.707107
v -0.693520 -0.195090 0.693520
v -0.653281 -0.382683 0.653281
v -0.587938 -0.555570 0.587938
v -0.500000 -0.707107 0.500000
v -0.221315 0.407626 0.810601
v -0.121994 0.438206 0.693392
v -0.392847 -0.831470 0.392847
v -0.270598 -0.923880 0.270598
v -0.061065 0.463380 0.629612
v -0.137950 -0.980785 0.137950
v -0.162212 0.980785 0.108386
v -0.318190 0.923880 0.212608
v -0.461940 0.831470 0.308658
v -0.587938 0.707107 0.392847
v -0.691342 0.555570 0.461940
v -0.768178 0.382683 0.513280
v -0.815493 0.195090 0.544895
v -0.831470 -0.050000 0.555570
v -0.815493 -0.195090 0.544895
v -0.768178 -0.382683 0.513280
v -0.691342 -0.555570 0.461940
v -0.587938 -0.707107 0.392847
v -0.260239 0.443597 0.779688
v -0.461940 -0.831470 0.308658
v -0.143449 0.458033 0.676353
v -0.318190 -0.923880 0.212608
v -0.162212 -0.980785 0.108386
v -0.180240 0.980785 0.074658
v -0.353553 0.923880 0.146447
v -0.513280 0.831470 0.212607
v -0.653281 0.707107 0.270598
v -0.768178 0.555570 0.318190
v -0.853553 0.382683 0.353553
v -0.906127 0.195090 0.375330
v -0.923879 -0.050000 0.382683
v -0.906127 -0.195090 0.375330
v -0.853553 -0.382683 0.353553
v -0.768178 -0.555570 0.318190
v -0.289162 0.484636 0.744420
v -0.653281 -0.707107 0.270598
v -0.513280 -0.831470 0.212607
v -0.159391 0.480654 0.656914
v -0.353553 -0.923880 0.146447
v -0.180240 -0.980785 0.074658
v -0.078762 0.484948 0.611077
v -0.191342 0.980785 0.038060
v -0.375330 0.923880 0.074658
v -0.544895 0.831470 0.108386
v -0.693520 0.707107 0.137950
v -0.815493 0.555570 0.162212
v -0.906127 0.382683 0.180240
v -0.961940 0.195090 0.191342
v -0.980785 -0.050000 0.195090
v -0.961940 -0.195090 0.191342
v -0.906127 -0.382683 0.180240
v -0.815493 -0.555570 0.162212
v -0.693520 -0.707107 0.137950
v -0.306972 0.529165 0.706152
v -0.544895 -0.831470 0.108386
v -0.169208 0.505199 0.635820
v -0.375330 -0.923880 0.074658
v -0.191342 -0.980785 0.038060
v -0.195090 0.980785 -0.000000
v -0.382683 0.923880 -0.000000
v -0.555570 0.831470 -0.000000
v -0.707107 0.707107 0.000000
v -0.831469 0.555570 -0.000000
v -0.923879 0.382683 0.000000
v -0.980785 0.195090 -0.000000
v -1.000000 -0.050000 -0.000000
v -0.980785 -0.195090 -0.000000
v -0.923879 -0.382683 0.000000
v -0.831469 -0.555570 -0.000000
v -0.312986 0.575475 0.666355
v -0.707107 -0.707107 0.000000
v -0.555570 -0.831470 -0.000000
v -0.172523 0.530724 0.613884
v -0.382683 -0.923880 -0.000000
v -0.195090 -0.980785 -0.000000
v -0.085527 0.516078 0.584324
v -0.191342 0.980785 -0.038060
v -0.375330 0.923880 -0.074658
v -0.544895 0.831470 -0.108386
v -0.693520 0.707107 -0.137950
v -0.815493 0.555570 -0.162212
v -0.906127 0.382683 -0.180240
v -0.961940 0.195090 -0.191342
v -0.980785 -0.050000 -0.195090
v -0.961940 -0.195090 -0.191342
v -0.906127 -0.382683 -0.180240
v -0.815493 -0.555570 -0.162212
v -0.693520 -0.707107 -0.137950
v -0.306972 0.621784 0.626557
v -0.544895 -0.831470 -0.108386
v -0.169208 0.556250 0.591948
v -0.375330 -0.923880 -0.074658
v -0.191342 -0.980785 -0.038060
v -0.180240 0.980785 -0.074658
v -0.353553 0.923880 -0.146447
v -0.513280 0.831470 -0.212608
v -0.653281 0.707107 -0.270598
v -0.768178 0.555570 -0.318190
v -0.853553 0.382683 -0.353553
v -0.906127 0.195090 -0.375330
v -0.923879 -0.050000 -0.382683
v -0.906127 -0.195090 -0.375330
v -0.853553 -0.382683 -0.353553
v -0.768178 -0.555570 -0.318190
v -0.289162 0.666314 0.588289
v -0.653281 -0.707107 -0.270598
v -0.513280 -0.831470 -0.212608
v -0.353553 -0.923880 -0.146447
v -0.159391 0.580795 0.570854
v -0.079783 0.534752 0.568276
v -0.180240 -0.980785 -0.074658
v -0.162212 0.980785 -0.108386
v -0.318190 0.923880 -0.212608
v -0.461940 0.831470 -0.308658
v -0.587938 0.707107 -0.392847
v -0.691341 0.555570 -0.461940
v -0.768178 0.382683 -0.513280
v -0.815493 0.195090 -0.544895
v -0.831469 -0.050000 -0.555570
v -0.815493 -0.195090 -0.544895
v -0.768178 -0.382683 -0.513280
v -0.691341 -0.555570 -0.461940
v -0.587938 -0.707107 -0.392847
v -0.260239 0.707353 0.553021
v -0.461940 -0.831470 -0.308658
v -0.318190 -0.923880 -0.212608
v -0.143449 0.603415 0.551415
v -0.162212 -0.980785 -0.108386
v -0.137950 0.980785 -0.137950
v -0.270598 0.923880 -0.270598
v -0.392847 0.831470 -0.392847
v -0.500000 0.707107 -0.500000
v -0.587938 0.555570 -0.587938
v -0.653281 0.382683 -0.653281
v -0.693520 0.195090 -0.693520
v -0.707106 -0.050000 -0.707107
v -0.693520 -0.195090 -0.693520
v -0.653281 -0.382683 -0.653281
v -0.587938 -0.555570 -0.587938
v -0.221315 0.743324 0.522108
v -0.500000 -0.707107 -0.500000
v -0.392847 -0.831470 -0.392847
v -0.270598 -0.923880 -0.270598
v -0.121994 0.623242 0.534376
v -0.137950 -0.980785 -0.137950
v -0.066434 0.551037 0.554281
v -0.108386 0.980785 -0.162212
v -0.212607 0.923880 -0.318190
v -0.308658 0.831470 -0.461940
v -0.392847 0.707107 -0.587938
v -0.461940 0.555570 -0.691342
v -0.513280 0.382683 -0.768178
v -0.544895 0.195090 -0.815493
v -0.555570 -0.050000 -0.831469
v -0.544895 -0.195090 -0.815493
v -0.513280 -0.382683 -0.768178
v -0.461940 -0.555570 -0.691342
v -0.392847 -0.707107 -0.587938
v -0.173886 0.772844 0.496739
v -0.095851 0.639514 0.520392
v -0.308658 -0.831470 -0.461940
v -0.212607 -0.923880 -0.318190
v -0.108386 -0.980785 -0.162212
v -0.074658 0.980785 -0.180240
v -0.146447 0.923880 -0.353553
v -0.212607 0.831470 -0.513280
v -0.270598 0.707107 -0.653281
v -0.318189 0.555570 -0.768178
v -0.353553 0.382683 -0.853553
v -0.375330 0.195090 -0.906127
v -0.382683 -0.050000 -0.923879
v -0.375330 -0.195090 -0.906127
v -0.353553 -0.382683 -0.853553
v -0.318189 -0.555570 -0.768178
v -0.270598 -0.707107 -0.653281
v -0.119775 0.794780 0.477888
v -0.212607 -0.831470 -0.513280
v -0.066025 0.651605 0.510001
v -0.146447 -0.923880 -0.353553
v -0.074658 -0.980785 -0.180240
v -0.032626 0.569420 0.538483
v -0.038060 0.980785 -0.191342
v -0.074658 0.923880 -0.375330
v -0.108386 0.831470 -0.544895
v -0.137950 0.707107 -0.693520
v -0.162212 0.555570 -0.815493
v -0.180240 0.382683 -0.906127
v -0.191342 0.195090 -0.961939
v -0.195090 -0.050000 -0.980785
v -0.191342 -0.195090 -0.961939
v -0.180240 -0.382683 -0.906127
v -0.162212 -0.555570 -0.815493
v -0.061061 0.808288 0.466279
v -0.137950 -0.707107 -0.693520
v -0.108386 -0.831470 -0.544895
v -0.033662 0.659050 0.503603
v -0.074658 -0.923880 -0.375330
v -0.038060 -0.980785 -0.191342
v 0.000000 0.980785 -0.195090
v 0.000000 0.923880 -0.382683
v 0.000000 0.831470 -0.555570
v 0.000000 0.707107 -0.707107
v 0.000000 0.555570 -0.831469
v -0.000000 0.382683 -0.923879
v 0.000000 0.195090 -0.980785
v 0.000000 -0.050000 -0.999999
v 0.000000 -0.195090 -0.980785
v -0.000000 -0.382683 -0.923879
v 0.000000 -0.555570 -0.831469
v 0.000000 -0.707107 -0.707107
v 0.000000 0.812849 0.462360
v 0.000000 -0.831470 -0.555570
v -0.000006 0.661564 0.501442
v 0.000000 -0.923880 -0.382683
v 0.000000 -0.980785 -0.195090
v 0.038060 0.980785 -0.191342
v 0.074658 0.923880 -0.375330
v 0.108386 0.831470 -0.544895
v 0.137950 0.707107 -0.693520
v 0.162212 0.555570 -0.815493
v 0.180240 0.382683 -0.906127
v 0.191342 0.195090 -0.961939
v 0.195091 -0.050000 -0.980785
v 0.191342 -0.195090 -0.961939
v 0.180240 -0.382683 -0.906127
v 0.162212 -0.555570 -0.815493
v 0.061061 0.808288 0.466279
v 0.137950 -0.707107 -0.693520
v 0.033651 0.659050 0.503603
v 0.108386 -0.831470 -0.544895
v 0.074658 -0.923880 -0.375330
v 0.016627 0.573099 0.535321
v 0.038060 -0.980785 -0.191342
v 0.074658 0.980785 -0.180240
v 0.146447 0.923880 -0.353553
v 0.212608 0.831470 -0.513280
v 0.270598 0.707107 -0.653281
v 0.318190 0.555570 -0.768177
v 0.353553 0.382683 -0.853553
v 0.375330 0.195090 -0.906127
v 0.382683 -0.050000 -0.923879
v 0.375330 -0.195090 -0.906127
v 0.353553 -0.382683 -0.853553
v 0.318190 -0.555570 -0.768177
v 0.119775 0.794780 0.477888
v 0.270598 -0.707107 -0.653281
v 0.212608 -0.831470 -0.513280
v 0.066014 0.651605 0.510001
v 0.146447 -0.923880 -0.353553
v 0.074658 -0.980785 -0.180240
v 0.108386 0.980785 -0.162212
v 0.212608 0.923880 -0.318190
v 0.308658 0.831470 -0.461939
v 0.392847 0.707107 -0.587938
v 0.461940 0.555570 -0.691341
v 0.513280 0.382683 -0.768178
v 0.544895 0.195090 -0.815493
v 0.555570 -0.050000 -0.831469
v 0.544895 -0.195090 -0.815493
v 0.513280 -0.382683 -0.768178
v 0.461940 -0.555570 -0.691341
v 0.392847 -0.707107 -0.587938
v 0.173886 0.772844 0.496739
v 0.308658 -0.831470 -0.461939
v 0.212608 -0.923880 -0.318190
v 0.095840 0.639514 0.520392
v 0.047971 0.564143 0.543018
v 0.108386 -0.980785 -0.162212
v 0.137950 0.980785 -0.137950
v 0.270598 0.923880 -0.270598
v 0.392847 0.831470 -0.392847
v 0.500000 0.707107 -0.500000
v 0.587938 0.555570 -0.587937
v 0.653281 0.382683 -0.653281
v 0.693520 0.195090 -0.693520
v 0.707106 -0.050000 -0.707106
v 0.693520 -0.195090 -0.693520
v 0.653281 -0.382683 -0.653281
v 0.587938 -0.555570 -0.587937
v 0.221315 0.743323 0.522108
v 0.500000 -0.707107 -0.500000
v 0.121982 0.623242 0.534376
v 0.392847 -0.831470 -0.392847
v 0.270598 -0.923880 -0.270598
v 0.137950 -0.980785 -0.137950
v 0.162212 0.980785 -0.108386
v 0.318190 0.923880 -0.212607
v 0.461940 0.831470 -0.308658
v 0.587938 0.707107 -0.392847
v 0.691341 0.555570 -0.461939
v 0.768177 0.382683 -0.513280
v 0.815493 0.195090 -0.544895
v 0.831469 -0.050000 -0.555569
v 0.815493 -0.195090 -0.544895
v 0.768177 -0.382683 -0.513280
v 0.691341 -0.555570 -0.461939
v 0.260239 0.707353 0.553021
v 0.587938 -0.707107 -0.392847
v 0.143437 0.603415 0.551415
v 0.461940 -0.831470 -0.308658
v 0.318190 -0.923880 -0.212607
v 0.162212 -0.980785 -0.108386
v 0.066426 0.551037 0.554281
v 0.180240 0.980785 -0.074658
v 0.353553 0.923880 -0.146447
v 0.513280 0.831470 -0.212607
v 0.653281 0.707107 -0.270598
v 0.768177 0.555570 -0.318189
v 0.853553 0.382683 -0.353553
v 0.906127 0.195090 -0.375330
v 0.923879 -0.050000 -0.382683
v 0.906127 -0.195090 -0.375330
v 0.853553 -0.382683 -0.353553
v 0.768177 -0.555570 -0.318189
v 0.653281 -0.707107 -0.270598
v 0.289162 0.666314 0.588289
v 0.513280 -0.831470 -0.212607
v 0.159379 0.580795 0.570854
v 0.353553 -0.923880 -0.146447
v 0.180240 -0.980785 -0.074658
v 0.191342 0.980785 -0.038060
v 0.375330 0.923880 -0.074658
v 0.544895 0.831470 -0.108386
v 0.693520 0.707107 -0.137950
v 0.815493 0.555570 -0.162211
v 0.906127 0.382683 -0.180240
v 0.961939 0.195090 -0.191341
v 0.980784 -0.050000 -0.195090
v 0.961939 -0.195090 -0.191341
v 0.906127 -0.382683 -0.180240
v 0.815493 -0.555570 -0.162211
v 0.693520 -0.707107 -0.137950
v 0.306972 0.621784 0.626557
v 0.544895 -0.831470 -0.108386
v 0.375330 -0.923880 -0.074658
v 0.169197 0.556250 0.591948
v 0.083605 0.522302 0.578975
v 0.191342 -0.980785 -0.038060
v 0.195090 0.980785 0.000000
v 0.382683 0.923880 0.000000
v 0.555570 0.831470 0.000000
v 0.707107 0.707107 0.000000
v 0.831469 0.555570 0.000000
v 0.923879 0.382683 0.000000
v 0.980785 0.195090 0.000000
v 0.999999 -0.050000 0.000000
v 0.980785 -0.195090 0.000000
v 0.923879 -0.382683 0.000000
v 0.831469 -0.555570 0.000000
v 0.312986 0.575475 0.666355
v 0.707107 -0.707107 0.000000
v 0.555570 -0.831470 0.000000
v 0.172512 0.530724 0.613884
v 0.382683 -0.923880 0.000000
v 0.195090 -0.980785 0.000000
v 0.191342 0.980785 0.038060
v 0.375330 0.923880 0.074658
v 0.544895 0.831470 0.108386
v 0.693520 0.707107 0.137950
v 0.815493 0.555570 0.162212
v 0.906127 0.382683 0.180240
v 0.961939 0.195090 0.191342
v 0.980784 -0.050000 0.195091
v 0.961939 -0.195090 0.191342
v 0.906127 -0.382683 0.180240
v 0.815493 -0.555570 0.162212
v 0.306972 0.529165 0.706152
v 0.693520 -0.707107 0.137950
v 0.544895 -0.831470 0.108386
v 0.375330 -0.923880 0.074658
v 0.169197 0.505199 0.635820
v 0.191342 -0.980785 0.038060
v 0.082232 0.490770 0.606074
v 0.180240 0.980785 0.074658
v 0.353553 0.923880 0.146447
v 0.513279 0.831470 0.212607
v 0.653281 0.707107 0.270598
v 0.768177 0.555570 0.318190
v 0.853553 0.382683 0.353553
v 0.906127 0.195090 0.375330
v 0.923878 -0.050000 0.382683
v 0.906127 -0.195090 0.375330
v 0.853553 -0.382683 0.353553
v 0.768177 -0.555570 0.318190
v 0.653281 -0.707107 0.270598
v 0.289162 0.484636 0.744420
v 0.513279 -0.831470 0.212607
v 0.159379 0.480654 0.656914
v 0.353553 -0.923880 0.146447
v 0.180240 -0.980785 0.074658
v 0.162212 0.980785 0.108386
v 0.318189 0.923880 0.212607
v 0.461939 0.831470 0.308658
v 0.587938 0.707107 0.392847
v 0.691341 0.555570 0.461940
v 0.768177 0.382683 0.513280
v 0.815493 0.195090 0.544895
v 0.831468 -0.050000 0.555570
v 0.815493 -0.195090 0.544895
v 0.768177 -0.382683 0.513280
v 0.691341 -0.555570 0.461940
v 0.587938 -0.707107 0.392847
v 0.260239 0.443597 0.779688
v 0.461939 -0.831470 0.308658
v 0.318189 -0.923880 0.212607
v 0.143437 0.458034 0.676353
v 0.066426 0.468342 0.625348
v 0.162212 -0.980785 0.108386
v 0.137950 0.980785 0.137950
v 0.270598 0.923880 0.270598
v 0.392847 0.831470 0.392847
v 0.500000 0.707107 0.500000
v 0.587937 0.555570 0.587938
v 0.653281 0.382683 0.653281
v 0.693519 0.195090 0.693520
v 0.707106 -0.050000 0.707106
v 0.693519 -0.195090 0.693520
v 0.653281 -0.382683 0.653281
v 0.587937 -0.555570 0.587938
v 0.221315 0.407626 0.810601
v 0.500000 -0.707107 0.500000
v 0.392847 -0.831470 0.392847
v 0.121982 0.438206 0.693392
v 0.270598 -0.923880 0.270598
v 0.137950 -0.980785 0.137950
v 0.108386 0.980785 0.162212
v 0.212607 0.923880 0.318190
v 0.308658 0.831470 0.461939
v 0.392847 0.707107 0.587938
v 0.461939 0.555570 0.691341
v 0.513280 0.382683 0.768177
v 0.544895 0.195090 0.815493
v 0.555569 -0.050000 0.831469
v 0.544895 -0.195090 0.815493
v 0.513280 -0.382683 0.768177
v 0.461939 -0.555570 0.691341
v 0.392847 -0.707107 0.587938
v 0.173886 0.378105 0.835971
v 0.308658 -0.831470 0.461939
v 0.095840 0.421935 0.707376
v 0.212607 -0.923880 0.318190
v 0.047971 0.455235 0.636611
v 0.108386 -0.980785 0.162212
v 0.074658 0.980785 0.180240
v 0.146446 0.923880 0.353553
v 0.353553 0.382683 0.853553
v 0.375330 0.195090 0.906127
v 0.382683 -0.050000 0.923879
v 0.375330 -0.195090 0.906127
v 0.353553 -0.382683 0.853553
v 0.318189 -0.555570 0.768177
v 0.119775 0.356170 0.854822
v 0.270598 -0.707107 0.653281
v 0.066014 0.409844 0.717767
v 0.212607 -0.831470 0.513279
v 0.146446 -0.923880 0.353553
v 0.074658 -0.980785 0.180240
v 0.038060 0.980785 0.191342
v 0.074658 0.923880 0.375330
v 0.191341 0.195090 0.961939
v 0.195090 -0.050000 0.980784
v 0.191341 -0.195090 0.961939
v 0.180240 -0.382683 0.906127
v 0.162211 -0.555570 0.815493
v 0.061061 0.342662 0.866430
v 0.137950 -0.707107 0.693520
v 0.108386 -0.831470 0.544895
v 0.033651 0.402398 0.724165
v 0.074658 -0.923880 0.375330
v 0.016627 0.446279 0.644308
v 0.038060 -0.980785 0.191342
v -0.000000 0.980785 0.195090
v -0.000000 0.923880 0.382683
v -0.000000 -0.382683 0.923879
v -0.000000 0.338101 0.870350
v -0.000000 -0.707107 0.707107
v -0.000000 -0.831470 0.555570
v -0.000006 0.399884 0.726326
v -0.000000 -0.923880 0.382683
v -0.000000 -0.980785 0.195090
v -0.195148 0.050000 0.981075
v -0.000000 0.050000 1.000296
v -0.382797 0.050000 0.924153
v -0.555735 0.050000 0.831715
v -0.831715 0.050000 0.555734
v -0.924152 0.050000 0.382796
v -0.981075 0.050000 0.195148
v -1.000295 0.050000 -0.000000
v -0.981075 0.050000 -0.195148
v -0.924152 0.050000 -0.382797
v -0.707315 0.050000 -0.707316
v -0.555734 0.050000 -0.831715
v -0.382796 0.050000 -0.924152
v -0.195148 0.050000 -0.981075
v 0.195148 0.050000 -0.981075
v 1.000295 0.050000 0.000000
v 0.831714 0.050000 0.555734
v 0.707315 0.050000 0.707315
v 0.555733 0.050000 0.831715
v 0.382796 0.050000 0.924152
v -0.000000 -0.050000 0.950000
v -0.185336 -0.050000 0.931746
v -0.363549 -0.050000 0.877685
v -0.527792 -0.050000 0.789896
v -0.671751 -0.050000 0.671751
v -0.789896 -0.050000 0.527792
v -0.877685 -0.050000 0.363549
v -0.931746 -0.050000 0.185336
v -0.950000 -0.050000 -0.000000
v -0.931746 -0.050000 -0.185336
v -0.877685 -0.050000 -0.363549
v -0.789896 -0.050000 -0.527792
v -0.671751 -0.050000 -0.671751
v -0.527791 -0.050000 -0.789896
v -0.363549 -0.050000 -0.877685
v -0.185335 -0.050000 -0.931746
v 0.000000 -0.050000 -0.949999
v 0.185336 -0.050000 -0.931745
v 0.363549 -0.050000 -0.877685
v 0.527792 -0.050000 -0.789895
v 0.671751 -0.050000 -0.671751
v 0.789896 -0.050000 -0.527791
v 0.877685 -0.050000 -0.363549
v 0.931745 -0.050000 -0.185335
v 0.949999 -0.050000 0.000000
v 0.931745 -0.050000 0.185336
v 0.877684 -0.050000 0.363549
v 0.789895 -0.050000 0.527792
v 0.671750 -0.050000 0.671751
v 0.527791 -0.050000 0.789895
v 0.363548 -0.050000 0.877685
v 0.185335 -0.050000 0.931745
v -0.000000 0.050000 0.950000
v -0.185336 0.050000 0.931746
v -0.363549 0.050000 0.877685
v -0.527792 0.050000 0.789896
v -0.671751 0.050000 0.671751
v -0.789896 0.050000 0.527792
v -0.877685 0.050000 0.363549
v -0.931746 0.050000 0.185336
v -0.950000 0.050000 -0.000000
v -0.931746 0.050000 -0.185336
v -0.877685 0.050000 -0.363549
v -0.789896 0.050000 -0.527792
v -0.671751 0.050000 -0.671751
v -0.527791 0.050000 -0.789896
v -0.363549 0.050000 -0.877685
v -0.185335 0.050000 -0.931746
v 0.000000 0.050000 -0.949999
v 0.185336 0.050000 -0.931745
v 0.363549 0.050000 -0.877685
v 0.527792 0.050000 -0.789895
v 0.671751 0.050000 -0.671751
v 0.789896 0.050000 -0.527791
v 0.877685 0.050000 -0.363549
v 0.931745 0.050000 -0.185335
v 0.949999 0.050000 0.000000
v 0.931745 0.050000 0.185336
v 0.877684 0.050000 0.363549
v 0.789895 0.050000 0.527792
v 0.671750 0.050000 0.671751
v 0.527791 0.050000 0.789895
v 0.363548 0.050000 0.877685
v 0.185335 0.050000 0.931745
v -0.707316 0.050000 0.707316
v -0.831715 0.050000 -0.555734
v 0.000000 0.050000 -1.000295
v 0.382797 0.050000 -0.924152
v 0.555734 0.050000 -0.831715
v 0.707316 0.050000 -0.707315
v 0.831715 0.050000 -0.555734
v 0.924152 0.050000 -0.382796
v 0.981074 0.050000 -0.195147
v 0.981074 0.050000 0.195148
v 0.924152 0.050000 0.382797
v 0.195147 0.050000 0.981074
v -0.082436 0.871036 0.473427
v -0.138159 0.353031 0.919267
v -0.070148 0.337608 0.930644
v -0.191526 0.373949 0.905459
v -0.137876 0.857977 0.484375
v -0.209153 0.833403 0.510495
v -0.298810 0.453524 0.830782
v -0.332200 0.498635 0.795030
v -0.254608 0.412290 0.867110
v -0.356085 0.554511 0.748561
v -0.254908 0.798985 0.535336
v -0.298789 0.756346 0.570510
v -0.336112 0.709510 0.614960
v -0.352433 0.658091 0.654932
v -0.359260 0.604875 0.700565
v 0.209153 0.833403 0.510495
v 0.298789 0.756345 0.570510
v 0.336112 0.709509 0.614960
v 0.254908 0.798985 0.535336
v 0.352433 0.658091 0.654931
v 0.359260 0.604874 0.700565
v 0.356084 0.554511 0.748561
v 0.332200 0.498635 0.795030
v 0.191525 0.373949 0.905459
v 0.137876 0.857977 0.484375
v 0.298809 0.453524 0.830781
v 0.254608 0.412290 0.867110
v 0.070148 0.337608 0.930644
v 0.138159 0.353031 0.919267
v -0.000000 0.332005 0.939252
v 0.082436 0.871036 0.473427
v 0.000000 0.879069 0.466519
s 0
f 672 9 641
f 538 14 5
f 5 16 540
f 540 17 541
f 541 19 543
f 2 670 643
f 543 20 544
f 2 545 546
f 536 1 8
f 6 544 20
f 3 12 4
f 537 8 9
f 4 13 538
f 11 26 12
f 8 22 9
f 12 27 13
f 22 646 645
f 13 28 14
f 14 29 16
f 17 29 31
f 23 649 647
f 19 31 32
f 19 34 20
f 545 24 547
f 8 1 21
f 6 20 34
f 31 48 49
f 41 23 648
f 31 51 32
f 23 42 24
f 32 52 34
f 24 548 547
f 21 1 36
f 6 34 52
f 25 44 26
f 21 37 22
f 26 45 27
f 646 37 38
f 28 45 46
f 652 651 38
f 29 46 48
f 655 654 40
f 44 62 45
f 37 55 38
f 46 62 63
f 38 56 39
f 46 64 48
f 39 57 40
f 48 67 49
f 40 58 41
f 49 68 51
f 42 58 59
f 51 70 52
f 548 59 629
f 36 1 53
f 6 52 70
f 43 61 44
f 36 54 37
f 68 84 86
f 59 76 77
f 68 87 70
f 629 77 549
f 53 1 71
f 6 70 87
f 60 79 61
f 53 72 54
f 61 80 62
f 54 73 55
f 63 80 81
f 55 74 56
f 63 82 64
f 57 74 75
f 64 84 67
f 57 76 58
f 72 90 73
f 81 97 98
f 73 91 74
f 81 100 82
f 75 91 92
f 82 101 84
f 75 93 76
f 84 103 86
f 77 93 94
f 87 103 104
f 549 94 550
f 71 1 88
f 6 87 104
f 78 96 79
f 71 89 72
f 79 97 80
f 94 111 112
f 103 122 104
f 550 112 551
f 88 1 106
f 6 104 122
f 95 114 96
f 89 106 107
f 96 115 97
f 89 108 90
f 98 115 116
f 90 109 91
f 98 117 100
f 92 109 110
f 101 117 119
f 92 111 93
f 103 119 121
f 116 132 133
f 108 126 109
f 116 135 117
f 110 126 127
f 119 135 136
f 110 128 111
f 119 138 121
f 112 128 129
f 121 139 122
f 551 129 552
f 106 1 123
f 6 122 139
f 113 131 114
f 107 123 124
f 114 132 115
f 107 125 108
f 138 157 139
f 552 147 553
f 123 1 141
f 6 139 157
f 130 149 131
f 123 142 124
f 131 150 132
f 124 143 125
f 133 150 151
f 125 144 126
f 133 152 135
f 127 144 145
f 136 152 154
f 127 146 128
f 136 156 138
f 129 146 147
f 143 161 144
f 151 170 152
f 145 161 162
f 154 170 171
f 145 163 146
f 154 172 156
f 147 163 164
f 157 172 175
f 147 554 553
f 141 1 158
f 6 157 175
f 148 166 149
f 141 159 142
f 149 167 150
f 143 159 160
f 151 167 168
f 554 182 630
f 158 1 176
f 6 175 192
f 165 184 166
f 158 177 159
f 166 185 167
f 160 177 178
f 168 185 186
f 160 179 161
f 168 187 170
f 162 179 180
f 171 187 189
f 162 181 163
f 171 190 172
f 164 181 182
f 172 192 175
f 186 205 187
f 180 196 197
f 187 206 189
f 180 198 181
f 190 206 207
f 182 198 199
f 192 207 209
f 630 199 555
f 176 1 193
f 6 192 209
f 183 201 184
f 176 194 177
f 184 202 185
f 177 195 178
f 186 202 203
f 178 196 179
f 6 209 227
f 200 219 201
f 194 211 212
f 201 220 202
f 195 212 213
f 203 220 221
f 195 214 196
f 203 222 205
f 197 214 215
f 206 222 225
f 197 216 198
f 206 226 207
f 199 216 217
f 207 227 209
f 555 217 556
f 193 1 211
f 225 239 241
f 215 233 216
f 225 243 226
f 217 233 234
f 226 244 227
f 556 234 557
f 211 1 228
f 6 227 244
f 218 236 219
f 211 229 212
f 219 237 220
f 212 230 213
f 221 237 238
f 213 231 214
f 221 239 222
f 215 231 232
f 228 247 229
f 236 255 237
f 229 248 230
f 238 255 256
f 230 249 231
f 238 258 239
f 232 249 250
f 241 258 259
f 232 251 233
f 241 261 243
f 234 251 252
f 243 262 244
f 557 252 558
f 228 1 246
f 6 244 262
f 235 254 236
f 250 268 251
f 259 278 261
f 252 268 269
f 262 278 279
f 558 269 631
f 246 1 263
f 6 262 279
f 253 271 254
f 246 264 247
f 254 272 255
f 248 264 265
f 256 272 273
f 248 266 249
f 256 274 258
f 250 266 267
f 259 274 276
f 271 289 272
f 264 282 265
f 273 289 290
f 265 283 266
f 273 292 274
f 267 283 284
f 276 292 294
f 267 285 268
f 276 295 278
f 269 285 286
f 278 297 279
f 631 286 559
f 263 1 280
f 6 279 297
f 270 288 271
f 263 281 264
f 294 313 295
f 286 303 304
f 295 314 297
f 559 304 632
f 280 1 298
f 6 297 314
f 287 306 288
f 281 298 299
f 288 307 289
f 281 300 282
f 290 307 308
f 282 301 283
f 290 310 292
f 284 301 302
f 294 310 311
f 284 303 285
f 299 317 300
f 308 324 325
f 300 318 301
f 308 326 310
f 302 318 319
f 311 326 328
f 302 320 303
f 311 329 313
f 304 320 321
f 314 329 332
f 632 321 633
f 298 1 315
f 6 314 332
f 305 323 306
f 299 315 316
f 306 324 307
f 321 338 339
f 332 348 349
f 633 339 634
f 315 1 333
f 6 332 349
f 322 341 323
f 315 334 316
f 323 342 324
f 316 335 317
f 325 342 343
f 317 336 318
f 325 345 326
f 319 336 337
f 328 345 347
f 319 338 320
f 328 348 329
f 343 359 360
f 335 353 336
f 343 362 345
f 337 353 354
f 347 362 364
f 337 355 338
f 347 365 348
f 339 355 356
f 348 366 349
f 634 356 635
f 333 1 350
f 6 349 366
f 340 358 341
f 333 351 334
f 341 359 342
f 334 352 335
f 365 384 366
f 635 374 636
f 350 1 368
f 6 366 384
f 357 376 358
f 350 369 351
f 358 377 359
f 351 370 352
f 360 377 378
f 352 371 353
f 360 379 362
f 353 372 354
f 364 379 381
f 354 373 355
f 364 383 365
f 356 373 374
f 378 396 379
f 372 388 389
f 381 396 398
f 372 390 373
f 381 399 383
f 374 390 391
f 383 402 384
f 636 391 637
f 368 1 385
f 6 384 402
f 375 393 376
f 368 386 369
f 376 394 377
f 369 387 370
f 378 394 395
f 370 388 371
f 385 1 403
f 6 402 419
f 392 411 393
f 385 404 386
f 393 412 394
f 387 404 405
f 395 412 413
f 387 406 388
f 395 415 396
f 389 406 407
f 398 415 416
f 389 408 390
f 398 418 399
f 391 408 409
f 399 419 402
f 637 409 560
f 407 423 424
f 416 432 433
f 407 425 408
f 416 434 418
f 409 425 426
f 418 436 419
f 560 426 638
f 403 1 420
f 6 419 436
f 410 428 411
f 403 421 404
f 411 429 412
f 405 421 422
f 413 429 430
f 405 423 406
f 413 432 415
f 427 446 428
f 420 439 421
f 428 447 429
f 422 439 440
f 430 447 448
f 422 441 423
f 430 449 432
f 424 441 442
f 433 449 451
f 424 443 425
f 433 453 434
f 426 443 444
f 434 454 436
f 638 444 639
f 420 1 438
f 6 436 454
f 451 466 468
f 442 460 443
f 453 468 469
f 444 460 461
f 453 472 454
f 639 461 561
f 438 1 455
f 6 454 472
f 445 463 446
f 439 455 456
f 446 464 447
f 439 457 440
f 448 464 465
f 440 458 441
f 448 466 449
f 442 458 459
f 455 474 456
f 463 482 464
f 457 474 475
f 465 482 483
f 457 476 458
f 465 485 466
f 459 476 477
f 468 485 486
f 459 478 460
f 468 488 469
f 461 478 479
f 469 489 472
f 561 479 562
f 455 1 473
f 6 472 489
f 462 481 463
f 477 495 478
f 486 505 488
f 479 495 496
f 488 507 489
f 562 496 563
f 473 1 490
f 6 489 507
f 480 498 481
f 473 491 474
f 481 499 482
f 475 491 492
f 483 499 500
f 475 493 476
f 483 501 485
f 477 493 494
f 486 501 503
f 498 514 499
f 656 491 509
f 500 514 515
f 659 657 492
f 500 517 501
f 660 661 494
f 503 517 519
f 494 663 495
f 503 520 505
f 496 510 511
f 505 521 507
f 563 511 564
f 490 1 508
f 6 507 521
f 497 513 498
f 491 508 509
f 519 533 520
f 511 510 664
f 521 533 535
f 564 524 640
f 508 1 522
f 6 521 535
f 512 526 513
f 508 523 509
f 513 527 514
f 665 509 671
f 515 527 528
f 515 530 517
f 519 530 531
f 510 666 667
f 527 5 528
f 528 540 530
f 531 540 541
f 531 543 533
f 669 668 524
f 533 544 535
f 640 2 546
f 522 1 536
f 6 535 544
f 525 4 526
f 523 536 537
f 526 538 527
f 523 672 671
f 148 575 165
f 165 576 183
f 427 589 590
f 200 576 577
f 3 566 11
f 462 591 592
f 235 578 579
f 480 592 593
f 235 580 253
f 525 565 3
f 480 594 497
f 270 580 581
f 25 568 43
f 512 594 595
f 270 582 287
f 60 568 569
f 512 596 525
f 287 583 305
f 78 569 570
f 322 583 584
f 78 571 95
f 340 584 585
f 392 589 410
f 95 572 113
f 357 585 586
f 130 572 573
f 218 577 578
f 357 587 375
f 130 574 148
f 445 590 591
f 392 587 588
f 11 567 25
f 596 597 565
f 581 614 582
f 567 600 568
f 582 615 583
f 568 601 569
f 583 616 584
f 569 602 570
f 584 617 585
f 570 603 571
f 585 618 586
f 571 604 572
f 586 619 587
f 572 605 573
f 587 620 588
f 573 606 574
f 589 622 590
f 574 607 575
f 566 599 567
f 591 624 592
f 575 608 576
f 577 610 578
f 592 625 593
f 576 609 577
f 588 621 589
f 593 626 594
f 578 611 579
f 590 623 591
f 594 627 595
f 579 612 580
f 565 598 566
f 595 628 596
f 580 613 581
f 601 549 602
f 616 634 617
f 602 550 603
f 618 634 635
f 603 551 604
f 618 636 619
f 604 552 605
f 619 637 620
f 606 552 553
f 621 638 622
f 607 553 554
f 598 547 599
f 623 561 624
f 607 630 608
f 609 556 610
f 624 562 625
f 608 555 609
f 621 637 560
f 625 563 626
f 610 557 611
f 622 639 623
f 627 563 564
f 611 558 612
f 597 545 598
f 627 640 628
f 612 631 613
f 597 640 546
f 614 631 559
f 599 548 600
f 614 632 615
f 600 629 601
f 615 633 616
f 539 643 670
f 18 539 542
f 35 542 534
f 7 35 534
f 645 641 22
f 643 30 642
f 18 30 15
f 35 33 18
f 33 47 30
f 35 50 33
f 12 26 27
f 30 644 642
f 65 649 644
f 47 66 65
f 69 50 35
f 7 69 35
f 69 85 66
f 7 105 69
f 65 647 649
f 66 83 65
f 83 648 647
f 85 99 83
f 105 102 85
f 8 21 22
f 105 120 102
f 11 25 26
f 99 650 648
f 102 118 99
f 118 655 650
f 120 134 118
f 140 120 105
f 7 140 105
f 140 155 137
f 4 12 13
f 655 153 654
f 153 137 155
f 654 169 653
f 169 155 173
f 174 155 140
f 7 174 140
f 174 191 173
f 7 210 174
f 169 652 653
f 188 173 191
f 652 204 651
f 188 208 204
f 210 208 191
f 537 536 8
f 7 245 210
f 646 204 223
f 204 224 223
f 210 224 208
f 242 223 224
f 245 242 224
f 3 11 12
f 223 645 646
f 240 641 645
f 260 240 242
f 245 260 242
f 2 10 545
f 277 257 260
f 245 277 260
f 7 296 245
f 257 672 641
f 291 672 275
f 277 291 275
f 296 293 277
f 543 19 20
f 296 312 293
f 642 10 643
f 309 671 291
f 293 309 291
f 327 665 309
f 312 327 309
f 331 312 296
f 7 331 296
f 331 346 330
f 7 367 331
f 344 656 327
f 330 344 327
f 344 657 659
f 346 361 344
f 367 363 346
f 10 2 643
f 367 382 363
f 7 401 367
f 380 657 361
f 363 380 361
f 380 660 658
f 382 397 380
f 401 400 382
f 644 10 642
f 541 17 19
f 397 661 660
f 400 414 397
f 401 417 400
f 661 431 662
f 417 431 414
f 437 417 401
f 7 437 401
f 540 16 17
f 662 450 663
f 452 431 435
f 437 452 435
f 467 452 470
f 437 470 452
f 7 471 437
f 663 467 666
f 666 484 667
f 484 470 487
f 471 487 470
f 5 14 16
f 502 487 504
f 506 487 471
f 7 506 471
f 664 516 669
f 504 516 502
f 506 518 504
f 7 534 506
f 534 532 518
f 538 13 14
f 516 668 669
f 518 529 516
f 668 539 670
f 532 539 529
f 534 542 532
f 672 537 9
f 641 9 22
f 13 27 28
f 14 28 29
f 17 16 29
f 23 644 649
f 647 648 23
f 19 17 31
f 644 23 24
f 24 10 644
f 19 32 34
f 545 10 24
f 31 29 48
f 648 650 40
f 40 41 648
f 31 49 51
f 23 41 42
f 32 51 52
f 24 42 548
f 25 43 44
f 21 36 37
f 26 44 45
f 646 22 37
f 28 27 45
f 651 646 38
f 38 39 652
f 39 653 652
f 29 28 46
f 654 653 39
f 39 40 654
f 40 650 655
f 44 61 62
f 37 54 55
f 46 45 62
f 38 55 56
f 46 63 64
f 39 56 57
f 48 64 67
f 40 57 58
f 49 67 68
f 42 41 58
f 51 68 70
f 548 42 59
f 43 60 61
f 36 53 54
f 68 67 84
f 59 58 76
f 68 86 87
f 629 59 77
f 60 78 79
f 53 71 72
f 61 79 80
f 54 72 73
f 63 62 80
f 55 73 74
f 63 81 82
f 57 56 74
f 64 82 84
f 57 75 76
f 72 89 90
f 81 80 97
f 73 90 91
f 81 98 100
f 75 74 91
f 82 100 101
f 75 92 93
f 84 101 103
f 77 76 93
f 87 86 103
f 549 77 94
f 78 95 96
f 71 88 89
f 79 96 97
f 94 93 111
f 103 121 122
f 550 94 112
f 95 113 114
f 89 88 106
f 96 114 115
f 89 107 108
f 98 97 115
f 90 108 109
f 98 116 117
f 92 91 109
f 101 100 117
f 92 110 111
f 103 101 119
f 116 115 132
f 108 125 126
f 116 133 135
f 110 109 126
f 119 117 135
f 110 127 128
f 119 136 138
f 112 111 128
f 121 138 139
f 551 112 129
f 113 130 131
f 107 106 123
f 114 131 132
f 107 124 125
f 138 156 157
f 552 129 147
f 130 148 149
f 123 141 142
f 131 149 150
f 124 142 143
f 133 132 150
f 125 143 144
f 133 151 152
f 127 126 144
f 136 135 152
f 127 145 146
f 136 154 156
f 129 128 146
f 143 160 161
f 151 168 170
f 145 144 161
f 154 152 170
f 145 162 163
f 154 171 172
f 147 146 163
f 157 156 172
f 147 164 554
f 148 165 166
f 141 158 159
f 149 166 167
f 143 142 159
f 151 150 167
f 554 164 182
f 165 183 184
f 158 176 177
f 166 184 185
f 160 159 177
f 168 167 185
f 160 178 179
f 168 186 187
f 162 161 179
f 171 170 187
f 162 180 181
f 171 189 190
f 164 163 181
f 172 190 192
f 186 203 205
f 180 179 196
f 187 205 206
f 180 197 198
f 190 189 206
f 182 181 198
f 192 190 207
f 630 182 199
f 183 200 201
f 176 193 194
f 184 201 202
f 177 194 195
f 186 185 202
f 178 195 196
f 200 218 219
f 194 193 211
f 201 219 220
f 195 194 212
f 203 202 220
f 195 213 214
f 203 221 222
f 197 196 214
f 206 205 222
f 197 215 216
f 206 225 226
f 199 198 216
f 207 226 227
f 555 199 217
f 225 222 239
f 215 232 233
f 225 241 243
f 217 216 233
f 226 243 244
f 556 217 234
f 218 235 236
f 211 228 229
f 219 236 237
f 212 229 230
f 221 220 237
f 213 230 231
f 221 238 239
f 215 214 231
f 228 246 247
f 236 254 255
f 229 247 248
f 238 237 255
f 230 248 249
f 238 256 258
f 232 231 249
f 241 239 258
f 232 250 251
f 241 259 261
f 234 233 251
f 243 261 262
f 557 234 252
f 235 253 254
f 250 267 268
f 259 276 278
f 252 251 268
f 262 261 278
f 558 252 269
f 253 270 271
f 246 263 264
f 254 271 272
f 248 247 264
f 256 255 272
f 248 265 266
f 256 273 274
f 250 249 266
f 259 258 274
f 271 288 289
f 264 281 282
f 273 272 289
f 265 282 283
f 273 290 292
f 267 266 283
f 276 274 292
f 267 284 285
f 276 294 295
f 269 268 285
f 278 295 297
f 631 269 286
f 270 287 288
f 263 280 281
f 294 311 313
f 286 285 303
f 295 313 314
f 559 286 304
f 287 305 306
f 281 280 298
f 288 306 307
f 281 299 300
f 290 289 307
f 282 300 301
f 290 308 310
f 284 283 301
f 294 292 310
f 284 302 303
f 299 316 317
f 308 307 324
f 300 317 318
f 308 325 326
f 302 301 318
f 311 310 326
f 302 319 320
f 311 328 329
f 304 303 320
f 314 313 329
f 632 304 321
f 305 322 323
f 299 298 315
f 306 323 324
f 321 320 338
f 332 329 348
f 633 321 339
f 322 340 341
f 315 333 334
f 323 341 342
f 316 334 335
f 325 324 342
f 317 335 336
f 325 343 345
f 319 318 336
f 328 326 345
f 319 337 338
f 328 347 348
f 343 342 359
f 335 352 353
f 343 360 362
f 337 336 353
f 347 345 362
f 337 354 355
f 347 364 365
f 339 338 355
f 348 365 366
f 634 339 356
f 340 357 358
f 333 350 351
f 341 358 359
f 334 351 352
f 365 383 384
f 635 356 374
f 357 375 376
f 350 368 369
f 358 376 377
f 351 369 370
f 360 359 377
f 352 370 371
f 360 378 379
f 353 371 372
f 364 362 379
f 354 372 373
f 364 381 383
f 356 355 373
f 378 395 396
f 372 371 388
f 381 379 396
f 372 389 390
f 381 398 399
f 374 373 390
f 383 399 402
f 636 374 391
f 375 392 393
f 368 385 386
f 376 393 394
f 369 386 387
f 378 377 394
f 370 387 388
f 392 410 411
f 385 403 404
f 393 411 412
f 387 386 404
f 395 394 412
f 387 405 406
f 395 413 415
f 389 388 406
f 398 396 415
f 389 407 408
f 398 416 418
f 391 390 408
f 399 418 419
f 637 391 409
f 407 406 423
f 416 415 432
f 407 424 425
f 416 433 434
f 409 408 425
f 418 434 436
f 560 409 426
f 410 427 428
f 403 420 421
f 411 428 429
f 405 404 421
f 413 412 429
f 405 422 423
f 413 430 432
f 427 445 446
f 420 438 439
f 428 446 447
f 422 421 439
f 430 429 447
f 422 440 441
f 430 448 449
f 424 423 441
f 433 432 449
f 424 442 443
f 433 451 453
f 426 425 443
f 434 453 454
f 638 426 444
f 451 449 466
f 442 459 460
f 453 451 468
f 444 443 460
f 453 469 472
f 639 444 461
f 445 462 463
f 439 438 455
f 446 463 464
f 439 456 457
f 448 447 464
f 440 457 458
f 448 465 466
f 442 441 458
f 455 473 474
f 463 481 482
f 457 456 474
f 465 464 482
f 457 475 476
f 465 483 485
f 459 458 476
f 468 466 485
f 459 477 478
f 468 486 488
f 461 460 478
f 469 488 489
f 561 461 479
f 462 480 481
f 477 494 495
f 486 503 505
f 479 478 495
f 488 505 507
f 562 479 496
f 480 497 498
f 473 490 491
f 481 498 499
f 475 474 491
f 483 482 499
f 475 492 493
f 483 500 501
f 477 476 493
f 486 485 501
f 498 513 514
f 656 492 491
f 500 499 514
f 657 658 493
f 493 492 657
f 492 656 659
f 500 515 517
f 661 662 494
f 494 493 660
f 493 658 660
f 503 501 517
f 662 663 494
f 663 510 495
f 503 519 520
f 496 495 510
f 505 520 521
f 563 496 511
f 497 512 513
f 491 490 508
f 519 531 533
f 524 511 664
f 521 520 533
f 564 511 524
f 512 525 526
f 508 522 523
f 513 526 527
f 656 509 665
f 509 523 671
f 515 514 527
f 515 528 530
f 519 517 530
f 667 664 510
f 510 663 666
f 527 538 5
f 528 5 540
f 531 530 540
f 531 541 543
f 668 670 2
f 2 524 668
f 524 664 669
f 533 543 544
f 640 524 2
f 525 3 4
f 523 522 536
f 526 4 538
f 523 537 672
f 148 574 575
f 165 575 576
f 427 410 589
f 200 183 576
f 3 565 566
f 462 445 591
f 235 218 578
f 480 462 592
f 235 579 580
f 525 596 565
f 480 593 594
f 270 253 580
f 25 567 568
f 512 497 594
f 270 581 582
f 60 43 568
f 512 595 596
f 287 582 583
f 78 60 569
f 322 305 583
f 78 570 571
f 340 322 584
f 392 588 589
f 95 571 572
f 357 340 585
f 130 113 572
f 218 200 577
f 357 586 587
f 130 573 574
f 445 427 590
f 392 375 587
f 11 566 567
f 596 628 597
f 581 613 614
f 567 599 600
f 582 614 615
f 568 600 601
f 583 615 616
f 569 601 602
f 584 616 617
f 570 602 603
f 585 617 618
f 571 603 604
f 586 618 619
f 572 604 605
f 587 619 620
f 573 605 606
f 589 621 622
f 574 606 607
f 566 598 599
f 591 623 624
f 575 607 608
f 577 609 610
f 592 624 625
f 576 608 609
f 588 620 621
f 593 625 626
f 578 610 611
f 590 622 623
f 594 626 627
f 579 611 612
f 565 597 598
f 595 627 628
f 580 612 613
f 601 629 549
f 616 633 634
f 602 549 550
f 618 617 634
f 603 550 551
f 618 635 636
f 604 551 552
f 619 636 637
f 606 605 552
f 621 560 638
f 607 606 553
f 598 545 547
f 623 639 561
f 607 554 630
f 609 555 556
f 624 561 562
f 608 630 555
f 621 620 637
f 625 562 563
f 610 556 557
f 622 638 639
f 627 626 563
f 611 557 558
f 597 546 545
f 627 564 640
f 612 558 631
f 597 628 640
f 614 613 631
f 599 547 548
f 614 559 632
f 600 548 629
f 615 632 633
f 539 15 643
f 18 15 539
f 35 18 542
f 643 15 30
f 18 33 30
f 33 50 47
f 30 47 644
f 47 65 644
f 47 50 66
f 69 66 50
f 69 105 85
f 65 83 647
f 66 85 83
f 83 99 648
f 85 102 99
f 99 118 650
f 102 120 118
f 118 134 655
f 120 137 134
f 140 137 120
f 655 134 153
f 153 134 137
f 654 153 169
f 169 153 155
f 174 173 155
f 174 210 191
f 169 188 652
f 188 169 173
f 652 188 204
f 188 191 208
f 646 651 204
f 204 208 224
f 210 245 224
f 242 240 223
f 223 240 645
f 240 257 641
f 260 257 240
f 277 275 257
f 245 296 277
f 257 275 672
f 291 671 672
f 277 293 291
f 309 665 671
f 293 312 309
f 327 656 665
f 312 330 327
f 331 330 312
f 331 367 346
f 344 659 656
f 330 346 344
f 344 361 657
f 346 363 361
f 367 401 382
f 380 658 657
f 363 382 380
f 380 397 660
f 382 400 397
f 397 414 661
f 400 417 414
f 661 414 431
f 417 435 431
f 437 435 417
f 662 431 450
f 452 450 431
f 467 450 452
f 437 471 470
f 663 450 467
f 666 467 484
f 484 467 470
f 502 484 487
f 506 504 487
f 664 667 484
f 484 502 664
f 664 502 516
f 504 518 516
f 506 534 518
f 516 529 668
f 518 532 529
f 668 529 539
f 532 542 539
